<svg width="24" height="25" viewBox="0 0 24 25" fill="none" xmlns="http://www.w3.org/2000/svg">
<g clip-path="url(#clip0_382_14)">
<path fill-rule="evenodd" clip-rule="evenodd" d="M12 0.96582C5.3725 0.96582 0 6.33832 0 12.9658C0 19.5933 5.3725 24.9658 12 24.9658C18.6275 24.9658 24 19.5933 24 12.9658C24 6.33832 18.6275 0.96582 12 0.96582ZM5.761 10.9048H8.48V19.0758H5.761V10.9048ZM8.6595 8.37732C8.642 7.57582 8.069 6.96582 7.1385 6.96582C6.2085 6.96582 5.6 7.57582 5.6 8.37732C5.6 9.16182 6.19 9.78932 7.103 9.78932H7.1205C8.069 9.78932 8.6595 9.16182 8.6595 8.37732ZM15.1565 10.7128C16.9465 10.7128 18.2875 11.8808 18.2875 14.3908V19.0758H15.568V14.7043C15.568 13.6063 15.1745 12.8568 14.1905 12.8568C13.439 12.8568 12.9915 13.3618 12.795 13.8498C12.723 14.0248 12.705 14.2683 12.705 14.5123V19.0758H9.9855C9.9855 19.0758 10.0215 11.6718 9.9855 10.9048H12.7055V12.0623C13.066 11.5058 13.7125 10.7128 15.1565 10.7128Z" fill="#B5DC58"/>
</g>
<defs>
<clipPath id="clip0_382_14">
<rect width="24" height="24" fill="white" transform="translate(0 0.96582)"/>
</clipPath>
</defs>
</svg>
