<svg width="24" height="25" viewBox="0 0 24 25" fill="none" xmlns="http://www.w3.org/2000/svg">
<path fill-rule="evenodd" clip-rule="evenodd" d="M12 0.96582C5.37258 0.96582 0 6.3384 0 12.9658C0 19.5932 5.37258 24.9658 12 24.9658C18.6274 24.9658 24 19.5932 24 12.9658C24 6.3384 18.6274 0.96582 12 0.96582ZM12.6849 4.96582H15.3816C15.3816 7.00649 16.9719 8.67582 18.9999 8.74549V11.4818C17.7133 11.4575 16.4656 11.0363 15.4276 10.2758V15.8645C15.4276 18.6702 13.1693 20.9658 10.3806 20.9658C7.59192 20.9658 5.33325 18.6935 5.33325 15.8645C5.33325 13.0585 7.54559 10.8095 10.2883 10.7628V13.4992C9.04392 13.5455 8.02958 14.5892 8.02958 15.8645C8.02958 17.1628 9.06692 18.2295 10.3576 18.2295C11.6483 18.2295 12.6849 17.1628 12.6849 15.8645V4.96582Z" fill="#B5DC58"/>
</svg>
