<svg width="24" height="25" viewBox="0 0 24 25" fill="none" xmlns="http://www.w3.org/2000/svg">
<g clip-path="url(#clip0_382_16)">
<path fill-rule="evenodd" clip-rule="evenodd" d="M12 0.96582C5.3725 0.96582 0 6.33832 0 12.9658C0 19.5933 5.3725 24.9658 12 24.9658C18.6275 24.9658 24 19.5933 24 12.9658C24 6.33832 18.6275 0.96582 12 0.96582ZM11.666 11.1348L11.641 10.7198C11.565 9.64332 12.228 8.66032 13.2775 8.27932C13.6635 8.14332 14.318 8.12632 14.7465 8.24532C14.914 8.29582 15.233 8.46532 15.46 8.61782L15.871 8.89782L16.3245 8.75382C16.576 8.67732 16.912 8.55032 17.063 8.46532C17.2055 8.38932 17.3315 8.34682 17.3315 8.37232C17.3315 8.51632 17.021 9.00782 16.761 9.27882C16.408 9.66032 16.509 9.69382 17.2225 9.43982C17.6505 9.29582 17.659 9.29582 17.575 9.45682C17.525 9.54182 17.2645 9.83832 16.9875 10.1093C16.5175 10.5753 16.4925 10.6263 16.4925 11.0163C16.4925 11.6178 16.207 12.8718 15.9215 13.5583C15.3925 14.8463 14.2595 16.1768 13.1265 16.8463C11.5315 17.7868 9.408 18.0243 7.62 17.4733C7.024 17.2868 6 16.8123 6 16.7278C6 16.7023 6.3105 16.6683 6.6885 16.6598C7.47898 16.6423 8.25242 16.4267 8.938 16.0328L9.391 15.7618L8.871 15.5838C8.132 15.3293 7.469 14.7448 7.301 14.1938C7.251 14.0158 7.2675 14.0073 7.7375 14.0073L8.2245 13.9988L7.813 13.8038C7.326 13.5588 6.8815 13.1433 6.663 12.7193C6.5035 12.4143 6.302 11.6433 6.361 11.5843C6.3775 11.5583 6.554 11.6093 6.7555 11.6773C7.3345 11.8888 7.4105 11.8383 7.0745 11.4823C6.4445 10.8383 6.252 9.88082 6.554 8.97382L6.6965 8.56732L7.2505 9.11782C8.384 10.2278 9.7185 10.8893 11.246 11.0838L11.666 11.1348Z" fill="#B5DC58"/>
</g>
<defs>
<clipPath id="clip0_382_16">
<rect width="24" height="24" fill="white" transform="translate(0 0.96582)"/>
</clipPath>
</defs>
</svg>
