<svg width="64" height="64" viewBox="0 0 64 64" fill="none" xmlns="http://www.w3.org/2000/svg">
<rect width="64" height="64" rx="16" fill="#D9D9D9" fill-opacity="0.2"/>
<path d="M34 30C34.5304 30 35.0391 30.2107 35.4142 30.5858C35.7893 30.9609 36 31.4696 36 32C36 32.5304 35.7893 33.0391 35.4142 33.4142C35.0391 33.7893 34.5304 34 34 34C33.4696 34 32.9609 33.7893 32.5858 33.4142C32.2107 33.0391 32 32.5304 32 32C32 31.4696 32.2107 30.9609 32.5858 30.5858C32.9609 30.2107 33.4696 30 34 30ZM23.72 20.5C25.0302 19.0812 26.62 17.9489 28.3892 17.1744C30.1584 16.4 32.0687 16.0001 34 16C41 16 46.88 21.22 47.86 28H52V32H40C40 30.4087 39.3679 28.8826 38.2426 27.7574C37.1174 26.6321 35.5913 26 34 26C32.4087 26 30.8826 26.6321 29.7574 27.7574C28.6321 28.8826 28 30.4087 28 32H12V28H12.1C12.5 23.46 14.28 19.32 17 16L23.72 20.5ZM21.46 23.78L18.12 21.54C17.06 23.5 16.36 25.68 16.12 28H20.14C20.36 26.5 20.8 25.08 21.46 23.78ZM22.8 38.8L20 36H31.58C32.06 36.84 33 37.4 34 37.4C35 37.4 35.94 36.84 36.42 36H48V38.8C44.78 36.84 44.92 39.5 44.92 39.5V43.42L41 47.34C40 43.84 38.2 45.8 38.2 45.8L35.4 48.6H29.8C31.76 45.38 29.1 45.52 29.1 45.52H25.18L21.26 41.6C24.76 40.62 22.8 38.8 22.8 38.8Z" fill="white"/>
</svg>
