<svg width="24" height="24" viewBox="0 0 24 24" fill="none" xmlns="http://www.w3.org/2000/svg">
<g clip-path="url(#clip0_421_2241)">
<path fill-rule="evenodd" clip-rule="evenodd" d="M0 12C0 5.3725 5.3725 0 12 0C18.6275 0 24 5.3725 24 12C24 18.6275 18.6275 24 12 24C5.3725 24 0 18.6275 0 12ZM12 4C9.82788 4 9.5564 4.00928 8.70337 4.04663C7.85327 4.08435 7.26855 4.22205 6.7627 4.4187C6.23438 4.625 5.78735 4.89697 5.34375 5.34363C4.89697 5.78772 4.625 6.23438 4.4187 6.75928C4.22192 7.26868 4.08423 7.84998 4.04712 8.69995C4.03687 8.93127 4.02881 9.11987 4.02246 9.31482C4.00488 9.84167 4 10.4147 4 12C4 14.172 4.00928 14.4437 4.04663 15.2966C4.06592 15.7349 4.11206 16.1025 4.17896 16.4253C4.24194 16.7286 4.32349 16.9922 4.4187 17.2373C4.625 17.7656 4.89697 18.2123 5.34375 18.6564C5.74268 19.063 6.22583 19.3776 6.75928 19.578C7.26855 19.775 7.8501 19.9124 8.69995 19.95C9.09302 19.9672 9.36279 19.9784 9.75171 19.9856C10.207 19.9939 10.8257 19.9967 11.9966 19.9967C14.1687 19.9967 14.4407 19.9873 15.2937 19.95C16.1436 19.9124 16.728 19.775 17.2344 19.578C17.7678 19.3776 18.251 19.063 18.6499 18.6564C19.0569 18.2573 19.3716 17.774 19.572 17.2407C19.7686 16.7313 19.9062 16.15 19.9436 15.3C19.9814 14.4467 19.9902 14.175 19.9902 12.0033C19.9902 9.8313 19.9814 9.55933 19.9436 8.7063C19.9062 7.85632 19.7686 7.27197 19.572 6.76562C19.375 6.23438 19.103 5.78735 18.6562 5.34363C18.2573 4.93701 17.7742 4.62244 17.2407 4.422C16.7314 4.22498 16.1499 4.08728 15.3 4.05005C14.4436 4.00928 14.1721 4 12 4ZM12 5.44067C14.1377 5.44067 14.3906 5.44995 15.2314 5.4873C16.0125 5.52197 16.4346 5.65295 16.7156 5.76233C17.0876 5.90637 17.3564 6.0813 17.6343 6.35938C17.9158 6.64062 18.0876 6.90601 18.231 7.27795C18.3406 7.55933 18.4719 7.98462 18.5063 8.7627C18.5437 9.60596 18.553 9.85938 18.553 11.9937C18.553 14.1313 18.5437 14.3843 18.5063 15.225C18.4719 16.0063 18.3406 16.4283 18.2314 16.7094C18.0876 17.0813 17.9124 17.35 17.6348 17.6281C17.353 17.9093 17.0874 18.0813 16.7156 18.225C16.4343 18.3344 16.0093 18.4657 15.2314 18.5C14.3875 18.5374 14.1348 18.5466 12 18.5466C10.9221 18.5466 10.3235 18.5443 9.88696 18.5372C9.45776 18.5302 9.1853 18.5186 8.76855 18.5C7.98755 18.4657 7.56543 18.3344 7.28442 18.225C7.13477 18.1671 7.00171 18.1042 6.87793 18.0316C6.69458 17.9237 6.53174 17.7944 6.36572 17.6283C6.08423 17.347 5.91235 17.0813 5.76904 16.7094C5.65942 16.428 5.52808 16.0031 5.49365 15.225C5.47485 14.8018 5.46313 14.5271 5.45605 14.089C5.44922 13.6538 5.44702 13.0573 5.44702 11.9937C5.44702 11.1982 5.44824 10.6638 5.4519 10.2628C5.45776 9.58643 5.47021 9.29016 5.49365 8.76233C5.52808 7.98132 5.65942 7.55933 5.76855 7.27795C5.91235 6.90637 6.08765 6.6377 6.36523 6.35938C6.57104 6.15369 6.76831 6.00647 7.00488 5.88623C7.09204 5.84192 7.18433 5.80127 7.28442 5.7627C7.56567 5.65295 7.99072 5.52197 8.76855 5.48767C9.60938 5.44995 9.8623 5.44067 12 5.44067ZM17.0696 8.26135C17.175 8.10339 17.2314 7.91785 17.2312 7.72803C17.2307 7.47375 17.1294 7.2301 16.9497 7.05029C16.7698 6.87061 16.5261 6.76929 16.272 6.76868C16.2053 6.76868 16.1392 6.77563 16.0745 6.78918C15.9551 6.81409 15.8411 6.86182 15.7388 6.9303C15.5808 7.03564 15.4578 7.18555 15.385 7.36096C15.3125 7.53625 15.2935 7.72925 15.3303 7.91553C15.3674 8.10168 15.4587 8.27271 15.593 8.40698C15.7273 8.54114 15.8982 8.63257 16.0845 8.66956C16.2708 8.70667 16.4636 8.68762 16.6389 8.61487C16.8145 8.54224 16.9644 8.41919 17.0696 8.26135ZM7.89062 12C7.89062 9.73132 9.7312 7.89062 12 7.89062C14.2686 7.89062 16.1094 9.73132 16.1094 12C16.1094 14.2687 14.2686 16.1094 12 16.1094C9.7312 16.1094 7.89062 14.2687 7.89062 12ZM10.1421 13.8702C10.6331 14.3689 11.3003 14.6547 12 14.6656C12.6997 14.6547 13.3669 14.3689 13.8579 13.8702C14.3486 13.3715 14.6238 12.6998 14.6238 12C14.6238 11.3003 14.3486 10.6285 13.8579 10.1299C13.3669 9.6311 12.6997 9.34546 12 9.33435C11.3003 9.34546 10.6331 9.6311 10.1421 10.1299C9.65112 10.6285 9.37622 11.3003 9.37622 12C9.37622 12.6998 9.65112 13.3715 10.1421 13.8702Z" fill="#B5DC58"/>
</g>
<defs>
<clipPath id="clip0_421_2241">
<rect width="24" height="24" fill="white"/>
</clipPath>
</defs>
</svg>
