<svg width="24" height="24" viewBox="0 0 24 24" fill="none" xmlns="http://www.w3.org/2000/svg">
<g clip-path="url(#clip0_421_2237)">
<path fill-rule="evenodd" clip-rule="evenodd" d="M12 0C5.3725 0 0 5.3725 0 12C0 18.6275 5.3725 24 12 24C18.6275 24 24 18.6275 24 12C24 5.3725 18.6275 0 12 0ZM5.761 9.939H8.48V18.11H5.761V9.939ZM8.6595 7.4115C8.642 6.61 8.069 6 7.1385 6C6.2085 6 5.6 6.61 5.6 7.4115C5.6 8.196 6.19 8.8235 7.103 8.8235H7.1205C8.069 8.8235 8.6595 8.196 8.6595 7.4115ZM15.1565 9.747C16.9465 9.747 18.2875 10.915 18.2875 13.425V18.11H15.568V13.7385C15.568 12.6405 15.1745 11.891 14.1905 11.891C13.439 11.891 12.9915 12.396 12.795 12.884C12.723 13.059 12.705 13.3025 12.705 13.5465V18.11H9.9855C9.9855 18.11 10.0215 10.706 9.9855 9.939H12.7055V11.0965C13.066 10.54 13.7125 9.747 15.1565 9.747Z" fill="#B5DC58"/>
</g>
<defs>
<clipPath id="clip0_421_2237">
<rect width="24" height="24" fill="white"/>
</clipPath>
</defs>
</svg>
