<svg width="32" height="32" viewBox="0 0 32 32" fill="none" xmlns="http://www.w3.org/2000/svg">
<rect width="32" height="32" rx="8" fill="#B5DC58"/>
<path d="M9 18.286C7.149 19.103 6 20.241 6 21.5C6 23.985 10.477 26 16 26C21.523 26 26 23.985 26 21.5C26 20.241 24.851 19.103 23 18.286M22 12C22 16.064 17.5 18 16 21C14.5 18 10 16.064 10 12C10 10.4087 10.6321 8.88258 11.7574 7.75736C12.8826 6.63214 14.4087 6 16 6C17.5913 6 19.1174 6.63214 20.2426 7.75736C21.3679 8.88258 22 10.4087 22 12ZM17 12C17 12.2652 16.8946 12.5196 16.7071 12.7071C16.5196 12.8946 16.2652 13 16 13C15.7348 13 15.4804 12.8946 15.2929 12.7071C15.1054 12.5196 15 12.2652 15 12C15 11.7348 15.1054 11.4804 15.2929 11.2929C15.4804 11.1054 15.7348 11 16 11C16.2652 11 16.5196 11.1054 16.7071 11.2929C16.8946 11.4804 17 11.7348 17 12Z" stroke="#003334" stroke-width="2" stroke-linecap="round" stroke-linejoin="round"/>
</svg>
