<svg width="32" height="32" viewBox="0 0 32 32" fill="none" xmlns="http://www.w3.org/2000/svg">
<rect width="32" height="32" rx="8" fill="#B5DC58"/>
<path d="M6 11L14.165 16.715C14.826 17.178 15.157 17.41 15.516 17.499C15.8338 17.5783 16.1662 17.5783 16.484 17.499C16.844 17.409 17.174 17.179 17.835 16.715L26 11M10.8 24H21.2C22.88 24 23.72 24 24.362 23.673C24.9265 23.3854 25.3854 22.9265 25.673 22.362C26 21.72 26 20.88 26 19.2V12.8C26 11.12 26 10.28 25.673 9.638C25.3854 9.07354 24.9265 8.61462 24.362 8.327C23.72 8 22.88 8 21.2 8H10.8C9.12 8 8.28 8 7.638 8.327C7.07354 8.61462 6.61462 9.07354 6.327 9.638C6 10.28 6 11.12 6 12.8V19.2C6 20.88 6 21.72 6.327 22.362C6.61462 22.9265 7.07354 23.3854 7.638 23.673C8.28 24 9.12 24 10.8 24Z" stroke="#003334" stroke-width="2" stroke-linecap="round" stroke-linejoin="round"/>
</svg>
