<svg width="32" height="32" viewBox="0 0 32 32" fill="none" xmlns="http://www.w3.org/2000/svg">
<rect width="32" height="32" rx="8" fill="#B5DC58"/>
<path d="M18.05 10C19.0267 10.1906 19.9243 10.6683 20.628 11.3719C21.3317 12.0756 21.8094 12.9733 22 13.95M18.05 6C20.0792 6.22544 21.9715 7.13417 23.4162 8.57701C24.8608 10.0198 25.772 11.911 26 13.94M14.227 17.863C13.0581 16.6969 12.0954 15.341 11.38 13.853C11.3348 13.7677 11.297 13.6787 11.267 13.587C11.2278 13.4412 11.2207 13.2887 11.2461 13.1399C11.2714 12.9911 11.3287 12.8496 11.4139 12.725C11.4619 12.658 11.5189 12.601 11.6339 12.487C11.9839 12.137 12.158 11.963 12.272 11.787C12.4828 11.4626 12.5951 11.0839 12.5951 10.697C12.5951 10.3101 12.4828 9.93143 12.272 9.607C12.158 9.431 11.9829 9.256 11.6339 8.907L11.439 8.711C10.907 8.18 10.6419 7.914 10.3559 7.77C10.0761 7.62851 9.76699 7.5548 9.45345 7.5548C9.13991 7.5548 8.83076 7.62851 8.55095 7.77C8.26595 7.914 7.99995 8.18 7.46795 8.711L7.31095 8.869C6.78095 9.399 6.51595 9.663 6.31395 10.023C6.08995 10.423 5.92795 11.043 5.92995 11.502C5.92995 11.915 6.01095 12.197 6.17095 12.762C7.06052 15.8944 8.73866 18.7463 11.045 21.045C13.3438 23.3509 16.1957 25.0287 19.328 25.918C19.893 26.078 20.1749 26.158 20.5879 26.16C21.1035 26.1465 21.6091 26.0152 22.066 25.776C22.426 25.573 22.691 25.308 23.221 24.779L23.378 24.621C23.91 24.09 24.175 23.824 24.32 23.539C24.4616 23.2591 24.5354 22.9497 24.5354 22.636C24.5354 22.3223 24.4616 22.0129 24.32 21.733C24.175 21.448 23.91 21.183 23.378 20.651L23.183 20.456C22.833 20.106 22.659 19.932 22.483 19.817C22.1585 19.6061 21.7799 19.4939 21.393 19.4939C21.006 19.4939 20.6274 19.6061 20.3029 19.817C20.1269 19.931 19.953 20.107 19.603 20.456C19.488 20.57 19.431 20.627 19.364 20.676C19.127 20.846 18.783 20.904 18.502 20.822C18.4102 20.792 18.3212 20.7542 18.236 20.709C16.748 19.9938 15.3922 19.0315 14.226 17.863H14.227Z" stroke="#003334" stroke-width="2" stroke-linecap="round" stroke-linejoin="round"/>
</svg>
