<svg width="24" height="24" viewBox="0 0 24 24" fill="none" xmlns="http://www.w3.org/2000/svg">
<path fill-rule="evenodd" clip-rule="evenodd" d="M12 0C5.37258 0 0 5.37258 0 12C0 18.6274 5.37258 24 12 24C18.6274 24 24 18.6274 24 12C24 5.37258 18.6274 0 12 0ZM12.6849 4H15.3816C15.3816 6.04067 16.9719 7.71 18.9999 7.77967V10.516C17.7133 10.4917 16.4656 10.0705 15.4276 9.31V14.8987C15.4276 17.7043 13.1693 20 10.3806 20C7.59192 20 5.33325 17.7277 5.33325 14.8987C5.33325 12.0927 7.54559 9.84367 10.2883 9.797V12.5333C9.04392 12.5797 8.02958 13.6233 8.02958 14.8987C8.02958 16.197 9.06692 17.2637 10.3576 17.2637C11.6483 17.2637 12.6849 16.197 12.6849 14.8987V4Z" fill="#B5DC58"/>
</svg>
