<svg width="24" height="24" viewBox="0 0 24 24" fill="none" xmlns="http://www.w3.org/2000/svg">
<g clip-path="url(#clip0_421_2239)">
<path fill-rule="evenodd" clip-rule="evenodd" d="M12 0C5.3725 0 0 5.3725 0 12C0 18.6275 5.3725 24 12 24C18.6275 24 24 18.6275 24 12C24 5.3725 18.6275 0 12 0ZM11.666 10.169L11.641 9.754C11.565 8.6775 12.228 7.6945 13.2775 7.3135C13.6635 7.1775 14.318 7.1605 14.7465 7.2795C14.914 7.33 15.233 7.4995 15.46 7.652L15.871 7.932L16.3245 7.788C16.576 7.7115 16.912 7.5845 17.063 7.4995C17.2055 7.4235 17.3315 7.381 17.3315 7.4065C17.3315 7.5505 17.021 8.042 16.761 8.313C16.408 8.6945 16.509 8.728 17.2225 8.474C17.6505 8.33 17.659 8.33 17.575 8.491C17.525 8.576 17.2645 8.8725 16.9875 9.1435C16.5175 9.6095 16.4925 9.6605 16.4925 10.0505C16.4925 10.652 16.207 11.906 15.9215 12.5925C15.3925 13.8805 14.2595 15.211 13.1265 15.8805C11.5315 16.821 9.408 17.0585 7.62 16.5075C7.024 16.321 6 15.8465 6 15.762C6 15.7365 6.3105 15.7025 6.6885 15.694C7.47898 15.6765 8.25242 15.4609 8.938 15.067L9.391 14.796L8.871 14.618C8.132 14.3635 7.469 13.779 7.301 13.228C7.251 13.05 7.2675 13.0415 7.7375 13.0415L8.2245 13.033L7.813 12.838C7.326 12.593 6.8815 12.1775 6.663 11.7535C6.5035 11.4485 6.302 10.6775 6.361 10.6185C6.3775 10.5925 6.554 10.6435 6.7555 10.7115C7.3345 10.923 7.4105 10.8725 7.0745 10.5165C6.4445 9.8725 6.252 8.915 6.554 8.008L6.6965 7.6015L7.2505 8.152C8.384 9.262 9.7185 9.9235 11.246 10.118L11.666 10.169Z" fill="#B5DC58"/>
</g>
<defs>
<clipPath id="clip0_421_2239">
<rect width="24" height="24" fill="white"/>
</clipPath>
</defs>
</svg>
